C:\GBW_MyPrograms\PredSim\Subjects\Ines_test\Smurf\Smurf_v1.mot
version=1
nRows=9
nColumns=31
inDegrees=yes
endheader
                time	         pelvis_tilt	           pelvis_tx	           pelvis_ty	       hip_flexion_r	        knee_angle_r	       ankle_angle_r	       hip_flexion_l	        knee_angle_l	       ankle_angle_l	    lumbar_extension	          arm_flex_r	          arm_flex_l	hamstrings_r/activation	bifemsh_r/activation	glut_max_r/activation	iliopsoas_r/activation	rect_fem_r/activation	  vasti_r/activation	gastroc_r/activation	 soleus_r/activation	tib_ant_r/activation	hamstrings_l/activation	bifemsh_l/activation	glut_max_l/activation	iliopsoas_l/activation	rect_fem_l/activation	  vasti_l/activation	gastroc_l/activation	 soleus_l/activation	tib_ant_l/activation	
          0.94385683	         -0.35132740	          0.18724741	          0.11093102	          3.47840799	        -36.73195635	        -15.31611097	         41.63116715	        -47.38890310	         -6.94427083	         -6.05441489	         -4.81378909	         -4.81378918	          0.02591690	          0.05026931	          0.04739141	          0.01175216	          0.01257424	          0.01281191	          0.04574078	          0.02282496	          0.05008520	          0.01037931	          0.01209853	          0.01289606	          0.13028535	          0.10016814	          0.05035071	          0.01223891	          0.01328007	          0.07467026	
          0.95014921	         -0.33822659	          0.18884860	          0.11044701	          2.82522124	        -37.52347225	        -15.51522786	         41.83757717	        -46.66997763	         -6.90953993	         -5.82490433	         -4.92086496	         -4.92086507	          0.02726470	          0.05807205	          0.05107244	          0.01192185	          0.01191272	          0.01185501	          0.04874731	          0.02339605	          0.04633964	          0.01088742	          0.01170045	          0.01267335	          0.13202833	          0.09151645	          0.04953752	          0.01208094	          0.01344515	          0.07450456	
          0.95644159	         -0.31984645	          0.19052736	          0.10989181	          2.20061987	        -38.48726737	        -15.79655626	         41.96927843	        -46.19305028	         -6.88556261	         -5.53870614	         -5.03235355	         -5.03235367	          0.02783767	          0.07134032	          0.05567383	          0.01156783	          0.01131006	          0.01094388	          0.05119515	          0.02491497	          0.04263057	          0.01074024	          0.01147536	          0.01283147	          0.12888828	          0.08316403	          0.04649086	          0.01174085	          0.01361565	          0.07375634	
          0.96273397	         -0.29587868	          0.19228047	          0.10925913	          1.60536379	        -39.63788675	        -16.17865009	         42.01803162	        -46.01701185	         -6.87464136	         -5.19795506	         -5.14401714	         -5.14401727	          0.02841217	          0.09351357	          0.06361299	          0.01101982	          0.01075272	          0.01011656	          0.06314161	          0.02641865	          0.03912203	          0.01017069	          0.01119591	          0.01230108	          0.12423626	          0.07538311	          0.04304434	          0.01123522	          0.01400629	          0.07333829	
          0.96902635	         -0.26708411	          0.19409905	          0.10854308	          1.03937608	        -40.98495719	        -16.67648703	         41.97871582	        -46.19610435	         -6.88532760	         -4.80896528	         -5.24891906	         -5.24891920	          0.03683637	          0.10380116	          0.06128033	          0.01007292	          0.01041356	          0.01017713	          0.07531817	          0.02905181	          0.03638463	          0.01002978	          0.01091913	          0.01252794	          0.11250947	          0.06824910	          0.03897488	          0.01522295	          0.01365814	          0.07378775	
          0.97531873	         -0.23656524	          0.19596794	          0.10774533	          0.53119537	        -42.49641737	        -17.26648586	         41.81808913	        -46.82002832	         -6.93336941	         -4.38158865	         -5.33789818	         -5.33789833	          0.03659847	          0.09433576	          0.06150980	          0.02499684	          0.01031045	          0.01162157	          0.07056965	          0.03034953	          0.03446302	          0.02009204	          0.03067815	          0.02386005	          0.10185609	          0.06179072	          0.03529568	          0.02660184	          0.01378414	          0.07092595	
          0.98161111	         -0.20516636	          0.19786379	          0.10688215	          0.13105034	        -44.05066075	        -17.88377279	         41.55923988	        -47.83529018	         -7.02922331	         -3.93637724	         -5.39871713	         -5.39871730	          0.03320081	          0.09422813	          0.05571630	          0.02755910	          0.02874360	          0.01083361	          0.07015418	          0.02968200	          0.03438074	          0.02259015	          0.06644526	          0.04901637	          0.09226696	          0.05597338	          0.03196812	          0.05112865	          0.01335857	          0.07643892	
          0.98790349	         -0.17339488	          0.19976591	          0.10598893	         -0.14439093	        -45.54573413	        -18.46008979	         41.22700756	        -49.08649783	         -7.11582486	         -3.49087909	         -5.42804427	         -5.42804445	          0.03010425	          0.08575803	          0.05047691	          0.03591787	          0.05540113	          0.01063486	          0.06584456	          0.02766740	          0.03714715	          0.02825917	          0.09940838	          0.07775134	          0.08360376	          0.05070798	          0.02895458	          0.05240399	          0.01400409	          0.07543736	
          0.99419586	         -0.14243241	          0.20165091	          0.10512618	         -0.26313037	        -46.92520640	        -18.94261739	         40.83416182	        -50.44476013	         -7.16110816	         -3.06367599	         -5.42171723	         -5.42171742	          0.02729685	          0.07838069	          0.04571493	          0.04476796	          0.09160384	          0.01072298	          0.06242723	          0.02590887	          0.04321190	          0.04447404	          0.09682896	          0.09290282	          0.07575305	          0.04595065	          0.02622546	          0.04958082	          0.01581855	          0.07332801	
